<?xml version="1.0" encoding="UTF-8" standalone="no"?>
<!DOCTYPE svg PUBLIC "-//W3C//DTD SVG 1.1//EN"
 "http://www.w3.org/Graphics/SVG/1.1/DTD/svg11.dtd">
<!-- Generated by graphviz version 6.0.1 (0)
 -->
<!-- Title: g Pages: 1 -->
<svg width="1058pt" height="264pt"
 viewBox="0.00 0.00 1057.50 264.00" xmlns="http://www.w3.org/2000/svg" xmlns:xlink="http://www.w3.org/1999/xlink">
<g id="graph0" class="graph" transform="scale(1 1) rotate(0) translate(4 260)">
<title>g</title>
<polygon fill="white" stroke="none" points="-4,4 -4,-260 1053.5,-260 1053.5,4 -4,4"/>
<!-- / -->
<g id="node1" class="node">
<title>/</title>
<polygon fill="none" stroke="black" points="538,-219.5 538,-255.5 798,-255.5 798,-219.5 538,-219.5"/>
<text text-anchor="middle" x="668" y="-233.7" font-family="Helvetica,Arial,sans-serif" font-size="16.00">os (windows, linux, ...) root/home /</text>
</g>
<!-- user -->
<g id="node2" class="node">
<title>user</title>
<polygon fill="none" stroke="black" points="641,-146.5 641,-182.5 695,-182.5 695,-146.5 641,-146.5"/>
<text text-anchor="middle" x="668" y="-160.7" font-family="Helvetica,Arial,sans-serif" font-size="16.00">user</text>
</g>
<!-- /&#45;&gt;user -->
<g id="0" class="edge">
<title>/:f0&#45;&gt;user:f0</title>
<path fill="none" stroke="black" d="M668,-219.46C668,-211.38 668,-201.68 668,-192.68"/>
<polygon fill="black" stroke="black" points="671.5,-192.59 668,-182.59 664.5,-192.59 671.5,-192.59"/>
</g>
<!-- node2 -->
<g id="node3" class="node">
<title>node2</title>
<polygon fill="none" stroke="black" points="283,-73.5 283,-109.5 903,-109.5 903,-73.5 283,-73.5"/>
<text text-anchor="middle" x="311.5" y="-87.7" font-family="Helvetica,Arial,sans-serif" font-size="16.00">home</text>
<polyline fill="none" stroke="black" points="340,-73.5 340,-109.5"/>
<text text-anchor="middle" x="416" y="-87.7" font-family="Helvetica,Arial,sans-serif" font-size="16.00">skripte/programme</text>
<polyline fill="none" stroke="black" points="492,-73.5 492,-109.5"/>
<text text-anchor="middle" x="565.5" y="-87.7" font-family="Helvetica,Arial,sans-serif" font-size="16.00">download/desktop</text>
<polyline fill="none" stroke="black" points="639,-73.5 639,-109.5"/>
<text text-anchor="middle" x="667.5" y="-87.7" font-family="Helvetica,Arial,sans-serif" font-size="16.00">share</text>
<polyline fill="none" stroke="black" points="696,-73.5 696,-109.5"/>
<text text-anchor="middle" x="728.5" y="-87.7" font-family="Helvetica,Arial,sans-serif" font-size="16.00">.config</text>
<polyline fill="none" stroke="black" points="761,-73.5 761,-109.5"/>
<text text-anchor="middle" x="807" y="-87.7" font-family="Helvetica,Arial,sans-serif" font-size="16.00">papierkorb</text>
<polyline fill="none" stroke="black" points="853,-73.5 853,-109.5"/>
<text text-anchor="middle" x="878" y="-87.7" font-family="Helvetica,Arial,sans-serif" font-size="16.00">work</text>
</g>
<!-- user&#45;&gt;node2 -->
<g id="1" class="edge">
<title>user:f0&#45;&gt;node2:f0</title>
<path fill="none" stroke="black" d="M642.28,-146.5C641.85,-146.32 641.43,-146.16 641,-146 609.32,-134.27 358.78,-144.77 316.92,-118.27"/>
<polygon fill="black" stroke="black" points="319.67,-116.09 311,-110 313.98,-120.17 319.67,-116.09"/>
</g>
<!-- user&#45;&gt;node2 -->
<g id="2" class="edge">
<title>user:f0&#45;&gt;node2:f1</title>
<path fill="none" stroke="black" d="M641.95,-146.39C641.63,-146.26 641.32,-146.13 641,-146 597.46,-128.63 441.7,-155.97 418.81,-119.94"/>
<polygon fill="black" stroke="black" points="422.09,-118.67 416,-110 415.36,-120.58 422.09,-118.67"/>
</g>
<!-- user&#45;&gt;node2 -->
<g id="3" class="edge">
<title>user:f0&#45;&gt;node2:f2</title>
<path fill="none" stroke="black" d="M641.59,-146.34C641.39,-146.23 641.2,-146.11 641,-146 612.01,-129.34 574.07,-143.59 566.39,-120.02"/>
<polygon fill="black" stroke="black" points="569.84,-119.42 565,-110 562.91,-120.39 569.84,-119.42"/>
</g>
<!-- user&#45;&gt;node2 -->
<g id="4" class="edge">
<title>user:f0&#45;&gt;node2:f3</title>
<path fill="none" stroke="black" d="M668,-146.33C668,-138.63 668,-129.34 668,-120.18"/>
<polygon fill="black" stroke="black" points="671.5,-120 668,-110 664.5,-120 671.5,-120"/>
</g>
<!-- user&#45;&gt;node2 -->
<g id="5" class="edge">
<title>user:f0&#45;&gt;node2:f4</title>
<path fill="none" stroke="black" d="M691.41,-146.39C702.97,-137.16 715.96,-126.28 723.25,-118.54"/>
<polygon fill="black" stroke="black" points="726.31,-120.25 729,-110 720.51,-116.34 726.31,-120.25"/>
</g>
<!-- user&#45;&gt;node2 -->
<g id="6" class="edge">
<title>user:f0&#45;&gt;node2:f5</title>
<path fill="none" stroke="black" d="M694.08,-146.46C694.39,-146.3 694.69,-146.15 695,-146 738.46,-124.69 797.44,-156.8 805.96,-120.19"/>
<polygon fill="black" stroke="black" points="809.47,-120.3 807,-110 802.5,-119.59 809.47,-120.3"/>
</g>
<!-- user&#45;&gt;node2 -->
<g id="7" class="edge">
<title>user:f0&#45;&gt;node2:f6</title>
<path fill="none" stroke="black" d="M694.06,-146.41C694.37,-146.27 694.69,-146.13 695,-146 729.78,-131.4 852.84,-147.89 874.68,-119.72"/>
<polygon fill="black" stroke="black" points="878.08,-120.59 878,-110 871.45,-118.33 878.08,-120.59"/>
</g>
<!-- node3 -->
<g id="node4" class="node">
<title>node3</title>
<polygon fill="none" stroke="black" points="0,-0.5 0,-36.5 550,-36.5 550,-0.5 0,-0.5"/>
<text text-anchor="middle" x="57.5" y="-14.7" font-family="Helvetica,Arial,sans-serif" font-size="16.00">büro&#45;finanzen</text>
<polyline fill="none" stroke="black" points="115,-0.5 115,-36.5"/>
<text text-anchor="middle" x="233.5" y="-14.7" font-family="Helvetica,Arial,sans-serif" font-size="16.00">ffff (fun&#45;familie&#45;freunde&#45;freizeit)</text>
<polyline fill="none" stroke="black" points="352,-0.5 352,-36.5"/>
<text text-anchor="middle" x="389" y="-14.7" font-family="Helvetica,Arial,sans-serif" font-size="16.00">projekte</text>
<polyline fill="none" stroke="black" points="426,-0.5 426,-36.5"/>
<text text-anchor="middle" x="488" y="-14.7" font-family="Helvetica,Arial,sans-serif" font-size="16.00">bildung&#45;wissen</text>
</g>
<!-- node2&#45;&gt;node3 -->
<g id="8" class="edge">
<title>node2:f0&#45;&gt;node3:f0</title>
<path fill="none" stroke="black" d="M311,-73C311,37.34 73.11,-138.96 57.77,-47.09"/>
<polygon fill="black" stroke="black" points="61.26,-46.7 57,-37 54.28,-47.24 61.26,-46.7"/>
</g>
<!-- node2&#45;&gt;node3 -->
<g id="9" class="edge">
<title>node2:f0&#45;&gt;node3:f1</title>
<path fill="none" stroke="black" d="M311,-73C311,-39 249.13,-67.29 235.6,-46.91"/>
<polygon fill="black" stroke="black" points="238.92,-45.79 233,-37 232.15,-47.56 238.92,-45.79"/>
</g>
<!-- node2&#45;&gt;node3 -->
<g id="10" class="edge">
<title>node2:f0&#45;&gt;node3:f2</title>
<path fill="none" stroke="black" d="M311,-73C311,-39 372.87,-67.29 386.4,-46.91"/>
<polygon fill="black" stroke="black" points="389.85,-47.56 389,-37 383.08,-45.79 389.85,-47.56"/>
</g>
<!-- node2&#45;&gt;node3 -->
<g id="11" class="edge">
<title>node2:f0&#45;&gt;node3:f3</title>
<path fill="none" stroke="black" d="M311,-73C311,-19.29 513.88,-76.75 550,-37 552.25,-34.52 554.2,-31.01 555.16,-27.7"/>
<polygon fill="black" stroke="black" points="558.31,-26.17 551,-18.5 551.93,-29.05 558.31,-26.17"/>
</g>
<!-- node4 -->
<g id="node5" class="node">
<title>node4</title>
<polygon fill="none" stroke="black" points="732.5,-0.5 732.5,-36.5 1049.5,-36.5 1049.5,-0.5 732.5,-0.5"/>
<text text-anchor="middle" x="764.5" y="-14.7" font-family="Helvetica,Arial,sans-serif" font-size="16.00">schule</text>
<polyline fill="none" stroke="black" points="796.5,-0.5 796.5,-36.5"/>
<text text-anchor="middle" x="838" y="-14.7" font-family="Helvetica,Arial,sans-serif" font-size="16.00">nebenjob</text>
<polyline fill="none" stroke="black" points="879.5,-0.5 879.5,-36.5"/>
<text text-anchor="middle" x="916.5" y="-14.7" font-family="Helvetica,Arial,sans-serif" font-size="16.00">projekte</text>
<polyline fill="none" stroke="black" points="953.5,-0.5 953.5,-36.5"/>
<text text-anchor="middle" x="1001.5" y="-14.7" font-family="Helvetica,Arial,sans-serif" font-size="16.00">bewerbung</text>
</g>
<!-- node2&#45;&gt;node4 -->
<g id="12" class="edge">
<title>node2:f6&#45;&gt;node4:f0</title>
<path fill="none" stroke="black" d="M878,-73C878,-6.17 774.62,-88.48 732,-37 729.95,-34.52 728.09,-31.16 727.08,-27.98"/>
<polygon fill="black" stroke="black" points="730.41,-29.08 731,-18.5 723.94,-26.4 730.41,-29.08"/>
</g>
<!-- node2&#45;&gt;node4 -->
<g id="13" class="edge">
<title>node2:f6&#45;&gt;node4:f1</title>
<path fill="none" stroke="black" d="M878,-73C878,-53.19 850.57,-57.91 841.14,-46.53"/>
<polygon fill="black" stroke="black" points="844.45,-45.4 838,-37 837.8,-47.59 844.45,-45.4"/>
</g>
<!-- node2&#45;&gt;node4 -->
<g id="14" class="edge">
<title>node2:f6&#45;&gt;node4:f2</title>
<path fill="none" stroke="black" d="M878,-73C878,-53.65 904.24,-57.69 913.67,-46.75"/>
<polygon fill="black" stroke="black" points="917.09,-47.59 917,-37 910.46,-45.34 917.09,-47.59"/>
</g>
<!-- node2&#45;&gt;node4 -->
<g id="15" class="edge">
<title>node2:f6&#45;&gt;node4:f3</title>
<path fill="none" stroke="black" d="M878,-73C878,-19.65 985.18,-83.98 1000.25,-47.18"/>
<polygon fill="black" stroke="black" points="1003.75,-47.45 1002,-37 996.85,-46.26 1003.75,-47.45"/>
</g>
</g>
</svg>
